<?xml version="1.0" standalone="no"?>
<!DOCTYPE svg PUBLIC "-//W3C//DTD SVG 20010904//EN"
 "http://www.w3.org/TR/2001/REC-SVG-20010904/DTD/svg10.dtd">
<svg version="1.0" xmlns="http://www.w3.org/2000/svg"
 width="600.000000pt" height="600.000000pt" viewBox="0 0 600.000000 600.000000"
 preserveAspectRatio="xMidYMid meet">

<g transform="translate(0.000000,600.000000) scale(0.100000,-0.100000)"
fill="#000000" stroke="none">
<path d="M400 4468 c-182 -315 -314 -717 -367 -1117 -22 -173 -22 -540 1 -716
44 -339 129 -635 266 -923 402 -844 1177 -1455 2086 -1646 221 -46 361 -59
619 -59 258 0 398 13 619 59 909 191 1684 802 2086 1646 137 288 222 584 266
923 23 176 23 543 1 716 -53 400 -185 802 -367 1117 l-30 52 -615 0 c-338 0
-615 -3 -615 -6 0 -3 6 -15 12 -27 10 -17 14 -216 18 -864 l5 -842 56 97 c30
53 153 268 273 477 120 209 223 385 230 392 8 9 44 -7 151 -69 77 -45 142 -82
144 -84 2 -2 -40 -76 -92 -166 -52 -90 -245 -422 -428 -738 l-334 -575 -5
-435 -5 -435 -29 -53 c-32 -57 -79 -98 -135 -118 -29 -10 -286 -13 -1239 -14
-1306 0 -1230 -3 -1305 54 -19 14 -47 50 -63 78 l-29 53 -3 1589 c-1 925 2
1602 7 1620 5 17 12 39 16 49 7 16 -25 17 -579 17 l-586 0 -30 -52z m4871
-466 c68 -36 99 -79 99 -141 0 -38 -10 -64 -51 -136 -28 -50 -53 -92 -55 -94
-3 -3 -229 123 -282 157 -10 7 -1 30 38 98 58 100 63 107 105 128 44 23 86 20
146 -12z"/>
<path d="M2001 4349 c-71 -14 -137 -65 -174 -134 l-22 -40 0 -1325 0 -1325 22
-41 c28 -53 91 -107 142 -122 55 -17 1957 -17 2012 0 51 15 114 70 141 122 21
40 36 173 26 221 -4 20 -11 14 -305 -269 -40 -39 -75 -67 -78 -65 -3 3 17 99
45 213 27 113 50 208 50 211 0 2 -16 -3 -35 -11 -50 -21 -1648 -21 -1699 0
-52 22 -76 60 -76 122 0 64 31 108 88 124 25 8 298 10 859 8 813 -3 822 -3
850 -24 15 -11 36 -36 45 -54 18 -34 41 -50 192 -135 55 -30 67 -34 65 -20 -3
10 -52 45 -119 85 -63 36 -114 71 -112 76 1 5 54 99 117 208 l115 200 -2 900
-3 901 -22 41 c-25 48 -81 100 -132 123 -32 14 -133 16 -991 18 -525 0 -975
-3 -999 -8z m1865 -503 c30 -30 34 -40 34 -85 0 -63 -20 -105 -60 -126 -43
-22 -1686 -23 -1729 -1 -43 23 -61 58 -61 122 0 50 3 59 34 90 l34 34 857 0
857 0 34 -34z m0 -618 c30 -33 34 -44 34 -92 0 -66 -31 -110 -88 -126 -51 -14
-1623 -14 -1674 0 -57 16 -88 60 -88 125 0 43 5 59 27 85 14 18 36 36 47 40
12 5 400 8 864 7 l844 -2 34 -37z m-27 -592 c15 -8 35 -26 45 -40 20 -32 21
-108 1 -146 -32 -63 8 -60 -910 -60 -918 0 -878 -3 -910 60 -8 16 -15 52 -15
81 0 46 4 55 36 85 l35 34 845 0 c718 0 849 -2 873 -14z"/>
</g>
</svg>
